<svg xmlns="http://www.w3.org/2000/svg" viewBox="0 0 64 100" width="64" height="100"
    style="width: 100%; height: 100%; transform: translate3d(0px, 0px, 0px);" preserveAspectRatio="xMinYMin meet">
    <defs>
        <clipPath id="__lottie_element_2">
            <rect width="64" height="100" x="0" y="0" />
        </clipPath>
    </defs>
    <g clip-path="url(#__lottie_element_2)">
        <g style="display: block;" transform="matrix(1,0,0,1,32,50)" opacity="1">
            <path stroke-linecap="butt" stroke-linejoin="miter" fill-opacity="0" stroke-miterlimit="4"
                stroke="rgb(29,32,33)" stroke-opacity="1" stroke-width="10"
                d=" M18.084999084472656,-10.833000183105469 C18.084999084472656,-10.833000183105469 5.014999866485596,-10.833000183105469 5.014999866485596,-10.833000183105469 C5.014999866485596,-10.833000183105469 5.014999866485596,-34.361000061035156 5.014999866485596,-34.361000061035156 C5.014999866485596,-36.83100128173828 4.625999927520752,-38.83300018310547 2.5429999828338623,-38.83300018310547 C2.5429999828338623,-38.83300018310547 2.2179999351501465,-38.83300018310547 2.2179999351501465,-38.83300018310547 C0.8759999871253967,-38.83300018310547 0.0010000000474974513,-37.64799880981445 -1.0160000324249268,-35.79999923706055 C-1.0160000324249268,-35.79999923706055 -22.309999465942383,3.9230000972747803 -22.309999465942383,3.9230000972747803 C-23.29599952697754,6.822999954223633 -21.138999938964844,9.833000183105469 -18.076000213623047,9.833000183105469 C-18.076000213623047,9.833000183105469 -5.015999794006348,9.833000183105469 -5.015999794006348,9.833000183105469 C-5.015999794006348,9.833000183105469 -5.015999794006348,34.36899948120117 -5.015999794006348,34.36899948120117 C-5.015999794006348,36.834999084472656 -5.01800012588501,38.83300018310547 -2.552000045776367,38.83300018310547 C-2.552000045776367,38.83300018310547 -2.2149999141693115,38.83300018310547 -2.2149999141693115,38.83300018310547 C-0.75,38.83300018310547 0.0010000000474974513,37.68600082397461 1.0130000114440918,35.80500030517578 C1.0130000114440918,35.80500030517578 22.312000274658203,-4.932000160217285 22.312000274658203,-4.932000160217285 C23.29599952697754,-7.828000068664551 21.14299964904785,-10.833000183105469 18.084999084472656,-10.833000183105469z" />
            <g opacity="1" transform="matrix(1,0,0,1,0,0)">
                <path fill="rgb(247,239,209)" fill-opacity="1"
                    d=" M18.084999084472656,-10.833000183105469 C18.084999084472656,-10.833000183105469 5.014999866485596,-10.833000183105469 5.014999866485596,-10.833000183105469 C5.014999866485596,-10.833000183105469 5.014999866485596,-34.361000061035156 5.014999866485596,-34.361000061035156 C5.014999866485596,-36.83100128173828 4.625999927520752,-38.83300018310547 2.5429999828338623,-38.83300018310547 C2.5429999828338623,-38.83300018310547 2.2179999351501465,-38.83300018310547 2.2179999351501465,-38.83300018310547 C0.8759999871253967,-38.83300018310547 0.0010000000474974513,-37.64799880981445 -1.0160000324249268,-35.79999923706055 C-1.0160000324249268,-35.79999923706055 -22.309999465942383,3.9230000972747803 -22.309999465942383,3.9230000972747803 C-23.29599952697754,6.822999954223633 -21.138999938964844,9.833000183105469 -18.076000213623047,9.833000183105469 C-18.076000213623047,9.833000183105469 -5.015999794006348,9.833000183105469 -5.015999794006348,9.833000183105469 C-5.015999794006348,9.833000183105469 -5.015999794006348,34.36899948120117 -5.015999794006348,34.36899948120117 C-5.015999794006348,36.834999084472656 -5.01800012588501,38.83300018310547 -2.552000045776367,38.83300018310547 C-2.552000045776367,38.83300018310547 -2.2149999141693115,38.83300018310547 -2.2149999141693115,38.83300018310547 C-0.75,38.83300018310547 0.0010000000474974513,37.68600082397461 1.0130000114440918,35.80500030517578 C1.0130000114440918,35.80500030517578 22.312000274658203,-4.932000160217285 22.312000274658203,-4.932000160217285 C23.29599952697754,-7.828000068664551 21.14299964904785,-10.833000183105469 18.084999084472656,-10.833000183105469z" />
            </g>
        </g>
    </g>
</svg>