<?xml version="1.0" encoding="UTF-8"?>
<svg xmlns="http://www.w3.org/2000/svg" xmlns:xlink="http://www.w3.org/1999/xlink" fill="#000000" width="16px" height="16px" viewBox="0 0 16 16" version="1.1">
<g id="surface1">
<path  d="M 15.097656 11.949219 C 15.09375 11.957031 15.085938 11.96875 15.078125 11.976562 C 15.0625 11.996094 15.046875 12.011719 15.03125 12.03125 L 13.53125 13.53125 C 13.238281 13.824219 12.761719 13.824219 12.46875 13.53125 C 12.175781 13.238281 12.175781 12.761719 12.46875 12.46875 L 12.6875 12.25 L 12.558594 12.25 C 11.023438 12.25 9.585938 11.507812 8.691406 10.261719 L 6.085938 6.609375 C 5.476562 5.757812 4.492188 5.25 3.441406 5.25 L 2 5.25 C 1.585938 5.25 1.25 4.914062 1.25 4.5 C 1.25 4.085938 1.585938 3.75 2 3.75 L 3.441406 3.75 C 4.976562 3.75 6.414062 4.492188 7.308594 5.738281 L 9.914062 9.390625 C 10.523438 10.242188 11.507812 10.75 12.558594 10.75 L 12.6875 10.75 L 12.46875 10.53125 C 12.175781 10.238281 12.175781 9.761719 12.46875 9.46875 C 12.761719 9.175781 13.238281 9.175781 13.53125 9.46875 L 15.03125 10.96875 C 15.046875 10.988281 15.0625 11.003906 15.078125 11.023438 C 15.085938 11.03125 15.09375 11.042969 15.097656 11.050781 C 15.109375 11.0625 15.117188 11.070312 15.125 11.082031 C 15.128906 11.09375 15.136719 11.105469 15.144531 11.117188 C 15.148438 11.125 15.15625 11.136719 15.160156 11.148438 C 15.167969 11.15625 15.171875 11.167969 15.179688 11.179688 C 15.183594 11.191406 15.1875 11.203125 15.191406 11.214844 C 15.199219 11.222656 15.203125 11.234375 15.207031 11.246094 C 15.210938 11.257812 15.214844 11.269531 15.21875 11.28125 C 15.222656 11.292969 15.222656 11.304688 15.226562 11.316406 C 15.230469 11.328125 15.234375 11.339844 15.234375 11.351562 C 15.238281 11.367188 15.238281 11.378906 15.242188 11.394531 C 15.242188 11.40625 15.246094 11.414062 15.246094 11.425781 C 15.25 11.476562 15.25 11.523438 15.246094 11.574219 C 15.246094 11.585938 15.242188 11.59375 15.242188 11.605469 C 15.238281 11.621094 15.238281 11.632812 15.234375 11.648438 C 15.234375 11.660156 15.230469 11.671875 15.226562 11.683594 C 15.222656 11.695312 15.222656 11.707031 15.21875 11.71875 C 15.214844 11.730469 15.210938 11.742188 15.207031 11.753906 C 15.203125 11.765625 15.199219 11.777344 15.191406 11.785156 C 15.1875 11.796875 15.183594 11.808594 15.179688 11.820312 C 15.171875 11.832031 15.167969 11.84375 15.160156 11.851562 C 15.15625 11.863281 15.148438 11.875 15.144531 11.882812 C 15.136719 11.894531 15.128906 11.90625 15.125 11.917969 C 15.117188 11.929688 15.109375 11.9375 15.097656 11.949219 Z M 9.054688 6.429688 C 9.367188 6.703125 9.839844 6.671875 10.113281 6.359375 C 10.730469 5.65625 11.621094 5.25 12.558594 5.25 L 12.6875 5.25 L 12.46875 5.46875 C 12.175781 5.761719 12.175781 6.238281 12.46875 6.53125 C 12.761719 6.824219 13.238281 6.824219 13.53125 6.53125 L 15.03125 5.03125 C 15.03125 5.027344 15.035156 5.027344 15.035156 5.023438 C 15.050781 5.007812 15.066406 4.992188 15.078125 4.976562 C 15.085938 4.964844 15.09375 4.957031 15.101562 4.945312 C 15.109375 4.9375 15.117188 4.925781 15.125 4.917969 C 15.132812 4.90625 15.136719 4.894531 15.144531 4.882812 C 15.148438 4.871094 15.15625 4.863281 15.160156 4.855469 C 15.167969 4.84375 15.171875 4.832031 15.179688 4.816406 C 15.183594 4.808594 15.1875 4.796875 15.191406 4.789062 C 15.199219 4.777344 15.203125 4.765625 15.207031 4.753906 C 15.210938 4.742188 15.214844 4.730469 15.21875 4.71875 C 15.222656 4.707031 15.222656 4.695312 15.226562 4.683594 C 15.230469 4.671875 15.234375 4.660156 15.234375 4.648438 C 15.238281 4.632812 15.238281 4.617188 15.242188 4.605469 C 15.242188 4.59375 15.246094 4.585938 15.246094 4.574219 C 15.25 4.523438 15.25 4.476562 15.246094 4.425781 C 15.246094 4.414062 15.242188 4.40625 15.242188 4.394531 C 15.238281 4.382812 15.238281 4.367188 15.234375 4.351562 C 15.234375 4.339844 15.230469 4.328125 15.226562 4.316406 C 15.222656 4.304688 15.222656 4.292969 15.21875 4.28125 C 15.214844 4.269531 15.210938 4.257812 15.207031 4.246094 C 15.203125 4.234375 15.199219 4.222656 15.191406 4.210938 C 15.1875 4.203125 15.183594 4.191406 15.179688 4.183594 C 15.171875 4.167969 15.167969 4.15625 15.160156 4.144531 C 15.15625 4.136719 15.148438 4.128906 15.144531 4.117188 C 15.136719 4.105469 15.132812 4.09375 15.125 4.082031 C 15.117188 4.074219 15.109375 4.0625 15.101562 4.054688 C 15.09375 4.042969 15.085938 4.035156 15.078125 4.023438 C 15.066406 4.007812 15.050781 3.992188 15.035156 3.976562 C 15.035156 3.972656 15.03125 3.972656 15.03125 3.96875 L 13.53125 2.46875 C 13.238281 2.175781 12.761719 2.175781 12.46875 2.46875 C 12.175781 2.761719 12.175781 3.238281 12.46875 3.53125 L 12.6875 3.75 L 12.558594 3.75 C 11.1875 3.75 9.886719 4.339844 8.984375 5.371094 C 8.710938 5.683594 8.742188 6.15625 9.054688 6.429688 Z M 6.945312 9.570312 C 6.632812 9.296875 6.160156 9.328125 5.886719 9.640625 C 5.269531 10.34375 4.378906 10.75 3.441406 10.75 L 2 10.75 C 1.585938 10.75 1.25 11.085938 1.25 11.5 C 1.25 11.914062 1.585938 12.25 2 12.25 L 3.441406 12.25 C 4.8125 12.25 6.113281 11.660156 7.015625 10.628906 C 7.289062 10.316406 7.257812 9.84375 6.945312 9.570312 Z M 6.945312 9.570312 "/>
</g>
</svg>
